<svg width="48" height="48" viewBox="0 0 48 48" fill="none" xmlns="http://www.w3.org/2000/svg">
<g clip-path="url(#clip0_13_367)">
<rect width="48" height="48" fill="white"/>
<path d="M17.0979 5.8541C17.6966 4.01148 20.3034 4.01148 20.9021 5.8541L23.9393 15.2016C24.2071 16.0257 24.975 16.5836 25.8414 16.5836H35.67C37.6074 16.5836 38.413 19.0628 36.8456 20.2016L28.8941 25.9787C28.1931 26.488 27.8998 27.3907 28.1675 28.2148L31.2047 37.5623C31.8034 39.4049 29.6945 40.9372 28.127 39.7984L20.1756 34.0213C19.4746 33.512 18.5254 33.512 17.8244 34.0213L9.87295 39.7984C8.30553 40.9372 6.19656 39.4049 6.79527 37.5623L9.83246 28.2148C10.1002 27.3907 9.80689 26.488 9.10592 25.9787L1.15444 20.2016C-0.412985 19.0628 0.392565 16.5836 2.33001 16.5836H12.1586C13.025 16.5836 13.7929 16.0257 14.0607 15.2016L17.0979 5.8541Z" fill="#FFE817"/>
</g>
<defs>
<clipPath id="clip0_13_367">
<rect width="48" height="48" fill="white"/>
</clipPath>
</defs>
</svg>
